<svg width="20" height="20" viewBox="0 0 20 20" fill="none" xmlns="http://www.w3.org/2000/svg">
<path d="M10 0.75C10.1138 0.750003 10.3148 0.794279 10.708 1.30762C11.1017 1.82173 11.5459 2.6155 12.1914 3.77344L12.5195 4.36133C12.8469 4.94842 13.1066 5.44494 13.542 5.77539C13.9818 6.10911 14.524 6.21589 15.1582 6.35938L15.7949 6.50391C17.0502 6.78793 17.9043 6.98335 18.4893 7.21387C19.0599 7.43878 19.1806 7.62284 19.2266 7.77051C19.275 7.92635 19.2767 8.16508 18.9355 8.70703C18.5892 9.25721 18.004 9.94316 17.1494 10.9424L16.7158 11.4502C16.2801 11.9597 15.9117 12.3688 15.748 12.8945V12.8955C15.5857 13.4182 15.6528 13.9695 15.7188 14.6504L15.7842 15.3271C15.9132 16.6591 16.0001 17.5766 15.9707 18.2373C15.945 18.8137 15.8355 19.0257 15.7344 19.126L15.6914 19.1631C15.5928 19.2379 15.4103 19.3203 14.8174 19.1504C14.2146 18.9777 13.4134 18.6113 12.2383 18.0703L11.6426 17.7959C11.0511 17.5236 10.5498 17.2744 10 17.2744C9.45016 17.2744 8.94886 17.5236 8.35742 17.7959L7.76172 18.0703C6.58659 18.6113 5.78541 18.9777 5.18262 19.1504C4.58956 19.3203 4.40712 19.2378 4.30859 19.1631C4.19787 19.079 4.05871 18.8965 4.0293 18.2373C3.99986 17.5766 4.08675 16.6591 4.21582 15.3271L4.28125 14.6504C4.34724 13.9694 4.41456 13.4175 4.25195 12.8945C4.08832 12.3688 3.71992 11.9597 3.28418 11.4502L2.85059 10.9424H2.84961C1.99522 9.94331 1.41077 9.25716 1.06445 8.70703C0.723295 8.16508 0.725002 7.92634 0.773438 7.77051C0.81936 7.62284 0.940093 7.43878 1.51074 7.21387C2.09567 6.98335 2.94979 6.78793 4.20508 6.50391L4.8418 6.35938C5.47593 6.2159 6.01819 6.10911 6.45801 5.77539C6.89327 5.44497 7.15312 4.94858 7.48047 4.36133L7.80859 3.77344C8.45406 2.61552 8.89829 1.82173 9.29199 1.30762C9.68518 0.794274 9.88624 0.75 10 0.75Z" stroke="#C1C9E5" stroke-width="1.5"/>
</svg>
