<svg width="44" height="27" viewBox="0 0 44 27" fill="none" xmlns="http://www.w3.org/2000/svg">
<path d="M13.252 0.630859C16.4873 0.630859 19.4506 1.7605 21.75 3.63477C18.854 5.99537 17.0117 9.53832 17.0117 13.5C17.0119 17.4613 18.8544 21.0028 21.75 23.3633C19.4506 25.2378 16.4875 26.3682 13.252 26.3682C5.9419 26.3682 0.0158964 20.6069 0.015625 13.5C0.015625 6.39284 5.94173 0.630859 13.252 0.630859ZM30.248 0.630859C37.5583 0.630859 43.4844 6.39284 43.4844 13.5C43.4841 20.6069 37.5581 26.3682 30.248 26.3682C27.0125 26.3682 24.0494 25.2378 21.75 23.3633C24.6456 21.0028 26.4881 17.4613 26.4883 13.5C26.4883 9.53832 24.646 5.99537 21.75 3.63477C24.0494 1.7605 27.0127 0.630859 30.248 0.630859Z" fill="#C1C9E5"/>
</svg>
