<svg width="35" height="23" viewBox="0 0 35 23" fill="none" xmlns="http://www.w3.org/2000/svg">
<path d="M11.6411 0.479998C11.5269 0.682972 10.9394 1.81625 10.3194 3.00027C9.69936 4.18429 8.58164 6.33245 7.83106 7.77864C5.7588 11.762 3.67838 15.7539 2.97674 17.124C2.62593 17.8005 2.23432 18.5532 2.10378 18.79L1.86719 19.2383H9.90332H17.9476V14.9673V10.6964H14.9779H12.0082L11.429 11.8466C11.1108 12.4809 10.8497 13.0137 10.8497 13.0306C10.8497 13.0475 11.8777 13.0645 13.1341 13.0645H15.4185V14.7136V16.3628H11.1026C8.72034 16.3628 6.76229 16.329 6.73782 16.2951C6.71334 16.2529 7.11311 15.4494 7.61894 14.4937C8.11661 13.5465 8.67138 12.4978 8.84271 12.1764C9.77278 10.4173 11.9022 6.41702 12.8649 4.62407L13.9663 2.57741H14.6924H15.4185V5.4106V8.2438H16.683H17.9476V4.18429V0.12479H14.8882H11.8369L11.6411 0.479998Z" fill="#C1C9E5"/>
<path d="M18.8477 9.68154V19.2383H20.153H21.4584L21.4747 16.1683L21.4992 13.1067L24.2404 13.0814L26.9817 13.0645L27.9199 14.8574C28.4421 15.8469 29.16 17.2424 29.5271 17.9528L30.1961 19.2383H31.6239C32.4071 19.2383 33.0435 19.2045 33.0435 19.1706C33.0435 19.0945 32.3092 17.6652 30.3919 13.9948C29.7964 12.853 29.0539 11.4237 28.7439 10.8233C28.0749 9.52085 26.2556 6.02798 24.4689 2.61969L23.188 0.167078L21.0178 0.141706L18.8477 0.12479V9.68154ZM23.6938 6.87371C24.7136 8.79352 25.5703 10.4342 25.5947 10.5273C25.6355 10.6964 25.6029 10.6964 23.5714 10.6795L21.4992 10.6541L21.4747 6.89063C21.4665 4.81859 21.4747 3.07639 21.4992 3.00873C21.5563 2.84804 21.4584 2.67044 23.6938 6.87371Z" fill="#C1C9E5"/>
<path d="M1.41142 20.101C1.2972 20.2532 0 22.7566 0 22.8243C0 22.8496 7.87296 22.875 17.5 22.875C27.127 22.875 35 22.8496 35 22.8073C35 22.7735 34.951 22.672 34.8939 22.579C34.8287 22.486 34.5676 21.987 34.3065 21.4795C34.0455 20.9637 33.7681 20.4308 33.6946 20.2955L33.5559 20.0418L17.5245 20.0164C4.75641 19.9995 1.47669 20.0249 1.41142 20.101Z" fill="#C1C9E5"/>
</svg>
