<svg width="33" height="35" viewBox="0 0 33 35" fill="none" xmlns="http://www.w3.org/2000/svg">
<path d="M5.68635 32.4591C5.61826 33.9988 4.58864 35 3.21131 35C2.48869 35 1.86817 34.7209 1.37733 34.1692C0.968235 33.7127 0.75 33.1201 0.75 32.4525C0.75 31.7779 1.00906 31.158 1.50682 30.6677C1.9772 30.1973 2.55679 29.9657 3.26586 29.9657C4.25446 29.9657 5.0183 30.4497 5.39311 31.2873H4.52744C4.20682 30.8789 3.75672 30.6677 3.21131 30.6677C2.75447 30.6677 2.33174 30.8443 2.0113 31.1715C1.6704 31.5186 1.47963 31.9961 1.47963 32.4591C1.47963 32.9701 1.65676 33.4332 1.97047 33.7603C2.30455 34.1075 2.7613 34.3053 3.21131 34.3053C3.94085 34.3053 4.51352 33.9168 4.8819 33.1404H2.68646V32.4591H5.68635Z" fill="#C1C9E5"/>
<path d="M7.93381 30.9737L7.23818 32.8127H8.61552L7.93381 30.9737ZM6.44053 34.9043H5.69727L7.59272 30.0608H8.27471L10.17 34.9043H9.39961L8.86774 33.4945H6.98604L6.44053 34.9043Z" fill="#C1C9E5"/>
<path d="M10.4355 34.9043V30.0608H11.4786L12.8832 33.8077L14.2877 30.0608H15.3173V34.9043H14.6561L14.7037 30.7013L13.1288 34.9043H12.631L11.0629 30.7013L11.1105 34.9043H10.4355Z" fill="#C1C9E5"/>
<path d="M18.4029 35C17.6866 35 17.08 34.7343 16.6028 34.2303C16.1459 33.7469 15.9141 33.1472 15.9141 32.4321C15.9141 31.7646 16.1664 31.1511 16.6504 30.6813C17.1278 30.2108 17.7279 29.9657 18.4165 29.9657C19.5483 29.9657 20.5161 30.7086 20.83 31.9005H19.5483C19.2892 31.4235 18.9004 31.1715 18.4232 31.1715C17.7004 31.1715 17.1346 31.7298 17.1346 32.4389C17.1346 33.2086 17.7347 33.8011 18.4029 33.8011C18.8595 33.8011 19.2619 33.556 19.5209 33.1063H20.8097C20.4891 34.2848 19.5685 35 18.4029 35Z" fill="#C1C9E5"/>
<path d="M23.0561 31.6479L22.5722 33.201H23.5337L23.0561 31.6479ZM22.0065 34.9043H20.7109L22.5722 30.0608H23.5405L25.4018 34.9043H24.0926L23.854 34.2026H22.2519L22.0065 34.9043Z" fill="#C1C9E5"/>
<path d="M26.9143 32.2951C27.5007 32.2951 27.7868 32.1453 27.7868 31.7092C27.7868 31.3072 27.5349 31.144 27.0097 31.144H26.6823V32.2951H26.9143ZM25.4961 34.9043V30.0608H27.1052C27.6163 30.0608 28.0051 30.0947 28.3328 30.3263C28.7621 30.6259 28.9871 31.0824 28.9871 31.6819C28.9871 32.4654 28.5779 33.0514 27.8894 33.2419L29.0756 34.9043H27.6096L26.6823 33.3444V34.9043H25.4961Z" fill="#C1C9E5"/>
<path d="M29.6152 34.9043V30.0608H32.247V31.1304H30.8015V31.9137H32.247V32.9899H30.8015V33.835H32.247V34.9043H29.6152Z" fill="#C1C9E5"/>
<path d="M31.3862 16.7571C31.2561 16.6838 31.1128 16.6342 30.9588 16.6128C30.9227 16.6068 30.8866 16.6055 30.85 16.6019C30.8304 16.601 30.8117 16.596 30.7919 16.596H30.7369C30.6881 16.5949 30.6393 16.5924 30.591 16.596H21.1116C20.4408 16.596 19.8969 17.1393 19.8969 17.8092C19.8969 18.4795 20.4408 19.0229 21.1116 19.0229H24.7947C24.9159 19.0239 25.0145 19.1225 25.0145 19.2442C25.0145 19.3143 24.9771 19.3722 24.9257 19.4126C22.9065 20.4903 20.3091 21.1434 17.4675 21.1434C16.7759 21.1434 16.0998 21.1031 15.4414 21.0293V23.7843C16.0149 23.8263 16.5969 23.8501 17.1879 23.8501C21.1429 23.8501 24.7409 22.884 27.4376 21.3056L27.4384 21.3094C27.4718 21.2918 27.5094 21.2818 27.5496 21.2818C27.6816 21.2818 27.7885 21.3887 27.7885 21.5206C27.7885 21.5446 27.7842 21.5676 27.7768 21.5901L27.215 23.1146C26.9191 23.9167 27.3298 24.8061 28.1329 25.1014C28.3094 25.1667 28.4902 25.1973 28.6681 25.1973C29.2986 25.1973 29.8905 24.8102 30.1213 24.1846L32.1542 18.6715C32.4301 17.9226 32.0858 17.1038 31.3862 16.7571Z" fill="#C1C9E5"/>
<path d="M17.4675 6.34727C20.3315 6.34727 22.9534 7.00608 24.9795 8.09907C24.9795 8.09907 26.2662 9.02431 26.8785 8.13611C27.5809 7.11696 26.1782 6.48252 26.1782 6.48252C23.6639 5.30136 20.5542 4.60289 17.1879 4.60289C16.5969 4.60289 16.0149 4.62679 15.4414 4.66884V6.4615C16.0998 6.3879 16.7759 6.34727 17.4675 6.34727Z" fill="#C1C9E5"/>
<path d="M2.91143 0.00147247C1.72879 0.00147247 0.769531 0.959692 0.769531 2.14157V25.4929C0.769531 26.675 1.72879 27.6328 2.91143 27.6328H15.4414V23.7856C7.90245 23.2352 2.04681 19.167 2.04681 14.2278C2.04681 9.28829 7.90245 5.22053 15.4414 4.66997V0.00147247H2.91143Z" fill="#C1C9E5"/>
<path d="M5.8418 13.7474C5.8418 17.3929 9.98743 20.4208 15.442 21.0312V6.46327C9.98743 7.07381 5.8418 10.1014 5.8418 13.7474Z" fill="#C1C9E5"/>
</svg>
