<svg width="17" height="22" viewBox="0 0 17 22" fill="none" xmlns="http://www.w3.org/2000/svg">
<path d="M16 8.49995C16 4.36441 12.6355 1 8.49998 1C4.3645 1 1 4.36441 1 8.49995C1 11.1117 2.34227 13.4155 4.3729 14.759V20.5832C4.3729 20.7441 4.46548 20.8906 4.61075 20.9596C4.66771 20.9867 4.7288 21 4.78958 21C4.88368 21 4.97696 20.9681 5.05278 20.9064L8.49994 18.0996L11.9471 20.9063C12.0719 21.0079 12.2441 21.0285 12.3893 20.9593C12.5346 20.8902 12.6272 20.7435 12.627 20.5826L12.6209 14.763C14.655 13.4202 16 11.1144 16 8.49995ZM8.76307 17.239C8.60979 17.1142 8.39002 17.1142 8.23682 17.239L5.20642 19.7064V15.2368C6.20122 15.7252 7.31904 15.9999 8.50002 15.9999C9.67869 15.9999 10.7946 15.7263 11.788 15.2397L11.7926 19.7056L8.76307 17.239ZM8.49998 15.1664C4.82407 15.1664 1.83348 12.1758 1.83348 8.49995C1.83348 4.82405 4.82407 1.83347 8.49998 1.83347C12.1759 1.83347 15.1665 4.82405 15.1665 8.49995C15.1665 12.1758 12.1759 15.1664 8.49998 15.1664Z" fill="#B6BFD8" stroke="#B6BFD8" stroke-width="0.3"/>
<path d="M8.91814 3.08473C8.91814 2.85457 8.73158 2.66797 8.50138 2.66797C5.28485 2.66797 2.66797 5.2848 2.66797 8.50136C2.66797 8.58932 2.67008 8.67932 2.67418 8.7687C2.68445 8.9921 2.86875 9.16632 3.09012 9.16632C3.09652 9.16632 3.10309 9.1662 3.10957 9.16585C3.33953 9.15526 3.51731 8.9603 3.50672 8.73042C3.50317 8.65366 3.50137 8.57659 3.50137 8.50132C3.50137 5.74437 5.7443 3.5014 8.5013 3.5014C8.73158 3.50144 8.91814 3.31488 8.91814 3.08473Z" fill="#B6BFD8" stroke="#B6BFD8" stroke-width="0.3"/>
<path d="M14.3261 8.23354C14.3154 8.00362 14.1199 7.82444 13.8906 7.83651C13.6606 7.84714 13.4829 8.04218 13.4935 8.27206C13.497 8.34714 13.4987 8.42417 13.4987 8.501C13.4987 11.258 11.2558 13.5009 8.49879 13.5009C8.26867 13.5009 8.08203 13.6875 8.08203 13.9177C8.08203 14.1478 8.26863 14.3344 8.49879 14.3344C11.7154 14.3344 14.3322 11.7176 14.3322 8.50104C14.3322 8.41136 14.3302 8.32139 14.3261 8.23354Z" fill="#B6BFD8" stroke="#B6BFD8" stroke-width="0.3"/>
<path d="M8.49887 11.9608C8.49895 11.9608 8.49899 11.9608 8.49907 11.9608C8.63075 11.9608 8.75477 11.8986 8.8334 11.793L9.71751 10.605L11.1842 10.4356C11.3151 10.4205 11.4311 10.3443 11.4971 10.2301C11.5631 10.116 11.5711 9.97745 11.5189 9.85644L10.9322 8.49687L11.5188 7.14199C11.5711 7.02105 11.5631 6.88246 11.4973 6.76824C11.4315 6.6541 11.3155 6.57777 11.1846 6.56246L9.7138 6.3907L8.83368 5.20539C8.75512 5.09957 8.6311 5.03719 8.4993 5.03711C8.49922 5.03711 8.49915 5.03711 8.49907 5.03711C8.36739 5.03711 8.2434 5.09937 8.16481 5.20504L7.28078 6.39293L5.81422 6.56238C5.68328 6.57746 5.56726 6.65363 5.50125 6.76781C5.43531 6.88191 5.42718 7.0205 5.47945 7.14152L6.06613 8.50109L5.47961 9.85597C5.42726 9.9769 5.43523 10.1155 5.50101 10.2297C5.56687 10.3439 5.68285 10.4202 5.81375 10.4355L7.28449 10.6073L8.16457 11.7926C8.24309 11.8984 8.36704 11.9608 8.49887 11.9608ZM7.55992 9.80026L6.46715 9.67265L6.90246 8.66691C6.94813 8.56144 6.9482 8.44179 6.90266 8.33624L6.46676 7.32609L7.55535 7.20031C7.66953 7.18714 7.77324 7.12734 7.84188 7.03511L8.49875 6.1525L9.152 7.0323C9.22048 7.12457 9.32411 7.18441 9.43825 7.19781L10.5311 7.32543L10.0958 8.33117C10.0501 8.43663 10.0501 8.55628 10.0956 8.66187L10.5316 9.67202L9.44294 9.7978C9.3288 9.81097 9.22505 9.87077 9.15645 9.96296L8.4995 10.8457L7.84621 9.96581C7.77766 9.87343 7.67406 9.81358 7.55992 9.80026Z" fill="#B6BFD8" stroke="#B6BFD8" stroke-width="0.3"/>
<path d="M3.66398 9.77856C3.60109 9.55711 3.37034 9.42758 3.14897 9.49051C2.92757 9.5534 2.79878 9.78282 2.86163 10.0042L2.86487 10.0162C2.91702 10.1997 3.08448 10.3201 3.2664 10.3201C3.3039 10.3201 3.34198 10.315 3.37991 10.3043C3.60132 10.2414 3.73011 10.012 3.6673 9.79055L3.66398 9.77856Z" fill="#B6BFD8" stroke="#B6BFD8" stroke-width="0.3"/>
<path d="M13.7354 7.52498C13.7692 7.52498 13.8037 7.5208 13.8379 7.51209C14.0611 7.45565 14.1962 7.22897 14.1397 7.00588C14.1381 6.99955 14.1364 6.99299 14.1347 6.98662C14.0731 6.76487 13.8434 6.63537 13.6216 6.69698C13.3999 6.75858 13.2701 6.98862 13.3317 7.21037C13.3795 7.39924 13.5491 7.52498 13.7354 7.52498Z" fill="#B6BFD8" stroke="#B6BFD8" stroke-width="0.3"/>
</svg>
