<svg width="16" height="16" viewBox="0 0 16 16" fill="none" xmlns="http://www.w3.org/2000/svg">
<path d="M12.9557 6.19332C12.5973 6.38341 12.3069 6.81998 12.3069 7.16863C12.3069 7.5171 12.5973 7.64569 12.9557 7.45585C13.3138 7.26579 13.6045 6.82898 13.6045 6.48051C13.6045 6.13185 13.3138 6.00323 12.9557 6.19332Z" fill="#C1C9E5"/>
<path d="M12.9557 8.24795C12.5973 8.43804 12.3069 8.8746 12.3069 9.22326C12.3069 9.57195 12.5973 9.70054 12.9557 9.51048C13.3138 9.32042 13.6045 8.88363 13.6045 8.53517C13.6045 8.1867 13.3138 8.05789 12.9557 8.24795Z" fill="#C1C9E5"/>
<path d="M9.80238 9.25762C10.1605 9.06753 10.4512 8.63097 10.4512 8.28228C10.4512 7.93359 10.1605 7.805 9.80238 7.99506C9.44381 8.18516 9.15356 8.62172 9.15356 8.97041C9.15356 9.31909 9.44381 9.44769 9.80238 9.25762Z" fill="#C1C9E5"/>
<path d="M12.9557 10.3038C12.5973 10.4936 12.3069 10.9304 12.3069 11.2789C12.3069 11.6276 12.5973 11.7562 12.9557 11.5661C13.3138 11.376 13.6045 10.9394 13.6045 10.5908C13.6045 10.2423 13.3138 10.1137 12.9557 10.3038Z" fill="#C1C9E5"/>
<path d="M9.80213 12.1062C9.44357 12.2965 9.15332 12.7331 9.15332 13.0815C9.15332 13.4302 9.44354 13.5588 9.80213 13.3687C10.1603 13.1788 10.4509 12.7421 10.4509 12.3934C10.4509 12.0449 10.1603 11.9163 9.80213 12.1062Z" fill="#C1C9E5"/>
<path d="M9.8417 10.0509C9.48336 10.241 9.19312 10.6776 9.19312 11.0263C9.19312 11.3749 9.48333 11.5035 9.8417 11.3135C10.2001 11.1234 10.4907 10.6868 10.4907 10.3381C10.4907 9.98945 10.2001 9.86082 9.8417 10.0509Z" fill="#C1C9E5"/>
<path d="M14.143 3.30006L8.97003 0.280906C8.64917 0.0935625 8.28804 0 7.9273 0C7.56677 0 7.20542 0.0935625 6.88475 0.280906L1.71161 3.30006C1.10099 3.6565 0.727295 4.29847 0.727295 4.99122V11.0088C0.727295 11.7015 1.10095 12.3435 1.71161 12.6999L6.88478 15.7191C7.20542 15.9062 7.56677 16 7.9273 16C8.28804 16 8.64917 15.9062 8.97003 15.7191L14.143 12.6999C14.7534 12.3435 15.1273 11.7015 15.1273 11.0088V4.99122C15.1273 4.29847 14.7534 3.6565 14.143 3.30006ZM7.75351 15.3979C7.56029 15.3746 7.37057 15.3129 7.19742 15.212L2.02424 12.1928C1.59666 11.9432 1.33512 11.4938 1.33512 11.0088V4.99122C1.33512 4.80303 1.37501 4.62053 1.44792 4.45266L7.75354 8.13266L7.75351 15.3979ZM1.62123 4.15981C1.7295 4.02031 1.86532 3.89988 2.02424 3.80713L7.19742 0.787969C7.42211 0.656844 7.67459 0.591406 7.9273 0.591406C8.18 0.591406 8.43228 0.656875 8.65717 0.787969L13.8303 3.80713C13.9892 3.89988 14.1251 4.02028 14.2333 4.15981L7.9273 7.84003L1.62123 4.15981ZM14.5193 11.0088C14.5193 11.4938 14.2579 11.9432 13.8303 12.1928L8.6572 15.212C8.48406 15.3129 8.29453 15.3746 8.10112 15.3979V8.13269L14.4067 4.45269C14.4796 4.62053 14.5193 4.80306 14.5193 4.99125V11.0088H14.5193Z" fill="#C1C9E5"/>
<path d="M8.55367 1.39584C8.23801 1.16866 7.71771 1.16275 7.3919 1.38325C7.0661 1.60353 7.05791 1.96691 7.3736 2.19412C7.68948 2.42153 8.20937 2.42741 8.53517 2.20694C8.86075 1.98641 8.86935 1.62344 8.55367 1.39584Z" fill="#C1C9E5"/>
<path d="M11.9852 3.61773C11.6696 3.39011 11.1495 3.38442 10.8237 3.6047C10.4981 3.82498 10.4897 4.18836 10.8054 4.41558C11.1213 4.64298 11.6411 4.64867 11.9669 4.42858C12.2927 4.20786 12.3011 3.84514 11.9852 3.61773Z" fill="#C1C9E5"/>
<path d="M5.02532 3.54937C4.70964 3.32193 4.18958 3.31628 3.86378 3.53656C3.53775 3.75706 3.52956 4.12 3.84525 4.34743C4.1609 4.57506 4.68102 4.58053 5.00701 4.36025C5.33256 4.13975 5.34097 3.77681 5.02532 3.54937Z" fill="#C1C9E5"/>
<path d="M8.45417 5.77096C8.13826 5.54353 7.61821 5.53787 7.29263 5.75815C6.96683 5.97865 6.95842 6.34159 7.27426 6.569C7.59017 6.79662 8.10981 6.80231 8.43583 6.58181C8.76144 6.36153 8.76986 5.99859 8.45417 5.77096Z" fill="#C1C9E5"/>
<path d="M8.48889 3.59719C8.18378 3.37754 7.68161 3.37188 7.36657 3.58482C7.05175 3.79775 7.04401 4.14854 7.34887 4.36819C7.65399 4.58782 8.15638 4.5935 8.47139 4.38057C8.78602 4.16763 8.79401 3.81685 8.48889 3.59719Z" fill="#C1C9E5"/>
<path d="M2.57486 7.75946C2.93323 7.94955 3.22389 7.82074 3.22389 7.47227C3.22389 7.12358 2.93323 6.68699 2.57486 6.49692C2.21674 6.30686 1.92627 6.43546 1.92627 6.78414C1.92627 7.13258 2.21674 7.56936 2.57486 7.75946Z" fill="#C1C9E5"/>
<path d="M6.19424 13.2057C6.55258 13.3958 6.84283 13.2672 6.84283 12.9185C6.84283 12.5701 6.55258 12.1333 6.19424 11.9432C5.83587 11.7533 5.54565 11.8819 5.54565 12.2304C5.54565 12.5791 5.83587 13.0157 6.19424 13.2057Z" fill="#C1C9E5"/>
<path d="M4.38711 10.4839C4.74545 10.674 5.03589 10.5454 5.03589 10.1968C5.03589 9.84829 4.74545 9.41151 4.38711 9.22163C4.02874 9.03157 3.73853 9.16016 3.73853 9.50863C3.73853 9.85729 4.02874 10.2939 4.38711 10.4839Z" fill="#C1C9E5"/>
</svg>
