<svg width="20" height="22" viewBox="0 0 20 22" fill="none" xmlns="http://www.w3.org/2000/svg">
<path d="M3.51328 19.4125C4.45133 20.1492 5.56225 20.667 6.75499 20.9235C6.86913 20.9585 6.94593 20.8185 6.86913 20.7485C4.31437 18.4635 5.71815 15.9905 6.75499 14.8756C7.49421 14.0796 8.54705 12.7686 8.47025 11.0106C8.47025 10.8346 8.66225 10.6936 8.81372 10.7996C10.2634 11.5026 11.2543 13.0496 11.521 14.3146C11.9413 13.9286 12.0938 13.3306 12.0938 12.8036C12.0938 12.6276 12.3221 12.4866 12.513 12.6276C13.8859 13.7876 16.2497 17.7245 12.4362 20.8175C12.3605 20.8885 12.4362 21.0295 12.513 20.9945C13.6694 20.7103 14.7568 20.2208 15.7164 19.5525C21.932 15.0526 17.8892 7.07262 15.2577 4.43664C14.9153 4.11964 14.3051 4.33064 14.3051 4.78764C14.2667 5.73763 13.9616 6.79162 13.1616 7.49462C12.5514 5.10464 10.5183 2.38966 7.62008 1.05367C7.23927 0.877671 6.78166 1.15867 6.82006 1.54567C6.89473 4.81564 4.61945 6.89762 2.63645 9.6046C0.881728 12.0296 -0.261777 16.4945 3.51328 19.4125Z" fill="#B6BFD8" stroke="#B6BFD8"/>
</svg>
