<svg width="16" height="16" viewBox="0 0 16 16" fill="none" xmlns="http://www.w3.org/2000/svg">
<mask id="path-1-inside-1_0_1358" fill="white">
<path d="M6.4763 6.10352e-05H0.381016C0.27998 6.10352e-05 0.183083 0.0401973 0.11164 0.11164C0.0401973 0.183083 6.10352e-05 0.27998 6.10352e-05 0.381016V6.4763C6.10352e-05 6.57733 0.0401973 6.67423 0.11164 6.74567C0.183083 6.81711 0.27998 6.85725 0.381016 6.85725H6.4763C6.57733 6.85725 6.67423 6.81711 6.74567 6.74567C6.81711 6.67423 6.85725 6.57733 6.85725 6.4763V0.381016C6.85725 0.27998 6.81711 0.183083 6.74567 0.11164C6.67423 0.0401973 6.57733 6.10352e-05 6.4763 6.10352e-05ZM6.09534 6.09534H0.761971V0.761971H6.09534V6.09534ZM15.6192 6.10352e-05H9.52394C9.4229 6.10352e-05 9.326 0.0401973 9.25456 0.11164C9.18312 0.183083 9.14298 0.27998 9.14298 0.381016V6.4763C9.14298 6.57733 9.18312 6.67423 9.25456 6.74567C9.326 6.81711 9.4229 6.85725 9.52394 6.85725H15.6192C15.7203 6.85725 15.8171 6.81711 15.8886 6.74567C15.96 6.67423 16.0002 6.57733 16.0002 6.4763V0.381016C16.0002 0.27998 15.96 0.183083 15.8886 0.11164C15.8171 0.0401973 15.7203 6.10352e-05 15.6192 6.10352e-05ZM15.2383 6.09534H9.90489V0.761971H15.2383V6.09534ZM6.4763 9.14298H0.381016C0.27998 9.14298 0.183083 9.18312 0.11164 9.25456C0.0401973 9.326 6.10352e-05 9.4229 6.10352e-05 9.52394V15.6192C6.60865e-05 15.7202 0.0402039 15.8171 0.111646 15.8886C0.183088 15.96 0.279982 16.0002 0.381016 16.0002H6.4763C6.57733 16.0002 6.67422 15.96 6.74567 15.8886C6.81711 15.8171 6.85725 15.7202 6.85725 15.6192V9.52394C6.85725 9.4229 6.81711 9.326 6.74567 9.25456C6.67423 9.18312 6.57733 9.14298 6.4763 9.14298ZM6.09534 15.2383H0.761971V9.90489H6.09534V15.2383ZM15.6192 9.14298H9.52394C9.4229 9.14298 9.326 9.18312 9.25456 9.25456C9.18312 9.326 9.14298 9.4229 9.14298 9.52394V15.6192C9.14299 15.7202 9.18312 15.8171 9.25457 15.8886C9.32601 15.96 9.4229 16.0002 9.52394 16.0002H15.6192C15.7202 16.0002 15.8171 15.96 15.8886 15.8886C15.96 15.8171 16.0002 15.7202 16.0002 15.6192V9.52394C16.0002 9.4229 15.96 9.326 15.8886 9.25456C15.8171 9.18312 15.7203 9.14298 15.6192 9.14298ZM15.2383 15.2383H9.90489V9.90489H15.2383V15.2383Z"/>
</mask>
<path d="M6.4763 6.10352e-05H0.381016C0.27998 6.10352e-05 0.183083 0.0401973 0.11164 0.11164C0.0401973 0.183083 6.10352e-05 0.27998 6.10352e-05 0.381016V6.4763C6.10352e-05 6.57733 0.0401973 6.67423 0.11164 6.74567C0.183083 6.81711 0.27998 6.85725 0.381016 6.85725H6.4763C6.57733 6.85725 6.67423 6.81711 6.74567 6.74567C6.81711 6.67423 6.85725 6.57733 6.85725 6.4763V0.381016C6.85725 0.27998 6.81711 0.183083 6.74567 0.11164C6.67423 0.0401973 6.57733 6.10352e-05 6.4763 6.10352e-05ZM6.09534 6.09534H0.761971V0.761971H6.09534V6.09534ZM15.6192 6.10352e-05H9.52394C9.4229 6.10352e-05 9.326 0.0401973 9.25456 0.11164C9.18312 0.183083 9.14298 0.27998 9.14298 0.381016V6.4763C9.14298 6.57733 9.18312 6.67423 9.25456 6.74567C9.326 6.81711 9.4229 6.85725 9.52394 6.85725H15.6192C15.7203 6.85725 15.8171 6.81711 15.8886 6.74567C15.96 6.67423 16.0002 6.57733 16.0002 6.4763V0.381016C16.0002 0.27998 15.96 0.183083 15.8886 0.11164C15.8171 0.0401973 15.7203 6.10352e-05 15.6192 6.10352e-05ZM15.2383 6.09534H9.90489V0.761971H15.2383V6.09534ZM6.4763 9.14298H0.381016C0.27998 9.14298 0.183083 9.18312 0.11164 9.25456C0.0401973 9.326 6.10352e-05 9.4229 6.10352e-05 9.52394V15.6192C6.60865e-05 15.7202 0.0402039 15.8171 0.111646 15.8886C0.183088 15.96 0.279982 16.0002 0.381016 16.0002H6.4763C6.57733 16.0002 6.67422 15.96 6.74567 15.8886C6.81711 15.8171 6.85725 15.7202 6.85725 15.6192V9.52394C6.85725 9.4229 6.81711 9.326 6.74567 9.25456C6.67423 9.18312 6.57733 9.14298 6.4763 9.14298ZM6.09534 15.2383H0.761971V9.90489H6.09534V15.2383ZM15.6192 9.14298H9.52394C9.4229 9.14298 9.326 9.18312 9.25456 9.25456C9.18312 9.326 9.14298 9.4229 9.14298 9.52394V15.6192C9.14299 15.7202 9.18312 15.8171 9.25457 15.8886C9.32601 15.96 9.4229 16.0002 9.52394 16.0002H15.6192C15.7202 16.0002 15.8171 15.96 15.8886 15.8886C15.96 15.8171 16.0002 15.7202 16.0002 15.6192V9.52394C16.0002 9.4229 15.96 9.326 15.8886 9.25456C15.8171 9.18312 15.7203 9.14298 15.6192 9.14298ZM15.2383 15.2383H9.90489V9.90489H15.2383V15.2383Z" fill="white"/>
<path d="M6.09534 6.09534V7.09534H7.09534V6.09534H6.09534ZM0.761971 6.09534H-0.238029V7.09534H0.761971V6.09534ZM0.761971 0.761971V-0.238029H-0.238029V0.761971H0.761971ZM6.09534 0.761971H7.09534V-0.238029H6.09534V0.761971ZM15.2383 6.09534V7.09534H16.2383V6.09534H15.2383ZM9.90489 6.09534H8.90489V7.09534H9.90489V6.09534ZM9.90489 0.761971V-0.238029H8.90489V0.761971H9.90489ZM15.2383 0.761971H16.2383V-0.238029H15.2383V0.761971ZM6.10352e-05 15.6192H-0.999939V15.6193L6.10352e-05 15.6192ZM0.381016 16.0002L0.380966 17.0002H0.381016V16.0002ZM6.4763 16.0002L6.4763 17.0002H6.47635L6.4763 16.0002ZM6.85725 15.6192L7.85725 15.6193V15.6192H6.85725ZM6.09534 15.2383V16.2383H7.09534V15.2383H6.09534ZM0.761971 15.2383H-0.238029V16.2383H0.761971V15.2383ZM0.761971 9.90489V8.90489H-0.238029V9.90489H0.761971ZM6.09534 9.90489H7.09534V8.90489H6.09534V9.90489ZM9.14298 15.6192H8.14298V15.6193L9.14298 15.6192ZM9.52394 16.0002L9.52389 17.0002H9.52394V16.0002ZM15.6192 16.0002V17.0002H15.6193L15.6192 16.0002ZM16.0002 15.6192L17.0002 15.6193V15.6192H16.0002ZM15.2383 15.2383V16.2383H16.2383V15.2383H15.2383ZM9.90489 15.2383H8.90489V16.2383H9.90489V15.2383ZM9.90489 9.90489V8.90489H8.90489V9.90489H9.90489ZM15.2383 9.90489H16.2383V8.90489H15.2383V9.90489ZM6.4763 6.10352e-05V-0.999939H0.381016V6.10352e-05V1.00006H6.4763V6.10352e-05ZM0.381016 6.10352e-05V-0.999939C0.0147633 -0.999939 -0.336488 -0.854445 -0.595467 -0.595467L0.11164 0.11164L0.818747 0.818747C0.702654 0.93484 0.545198 1.00006 0.381016 1.00006V6.10352e-05ZM0.11164 0.11164L-0.595467 -0.595467C-0.854445 -0.336488 -0.999939 0.0147633 -0.999939 0.381016H6.10352e-05H1.00006C1.00006 0.545198 0.93484 0.702654 0.818747 0.818747L0.11164 0.11164ZM6.10352e-05 0.381016H-0.999939V6.4763H6.10352e-05H1.00006V0.381016H6.10352e-05ZM6.10352e-05 6.4763H-0.999939C-0.999939 6.84255 -0.854446 7.1938 -0.595467 7.45278L0.11164 6.74567L0.818747 6.03857C0.934841 6.15466 1.00006 6.31212 1.00006 6.4763H6.10352e-05ZM0.11164 6.74567L-0.595467 7.45278C-0.336486 7.71176 0.0147657 7.85725 0.381016 7.85725V6.85725V5.85725C0.545195 5.85725 0.702652 5.92247 0.818747 6.03857L0.11164 6.74567ZM0.381016 6.85725V7.85725H6.4763V6.85725V5.85725H0.381016V6.85725ZM6.4763 6.85725V7.85725C6.84255 7.85725 7.1938 7.71176 7.45278 7.45278L6.74567 6.74567L6.03857 6.03857C6.15466 5.92247 6.31212 5.85725 6.4763 5.85725V6.85725ZM6.74567 6.74567L7.45278 7.45278C7.71176 7.1938 7.85725 6.84255 7.85725 6.4763H6.85725H5.85725C5.85725 6.31212 5.92247 6.15466 6.03857 6.03857L6.74567 6.74567ZM6.85725 6.4763H7.85725V0.381016H6.85725H5.85725V6.4763H6.85725ZM6.85725 0.381016H7.85725C7.85725 0.0147657 7.71176 -0.336486 7.45278 -0.595467L6.74567 0.11164L6.03857 0.818747C5.92247 0.702652 5.85725 0.545195 5.85725 0.381016H6.85725ZM6.74567 0.11164L7.45278 -0.595467C7.1938 -0.854446 6.84255 -0.999939 6.4763 -0.999939V6.10352e-05V1.00006C6.31212 1.00006 6.15466 0.934841 6.03857 0.818747L6.74567 0.11164ZM6.09534 6.09534V5.09534H0.761971V6.09534V7.09534H6.09534V6.09534ZM0.761971 6.09534H1.76197V0.761971H0.761971H-0.238029V6.09534H0.761971ZM0.761971 0.761971V1.76197H6.09534V0.761971V-0.238029H0.761971V0.761971ZM6.09534 0.761971H5.09534V6.09534H6.09534H7.09534V0.761971H6.09534ZM15.6192 6.10352e-05V-0.999939H9.52394V6.10352e-05V1.00006H15.6192V6.10352e-05ZM9.52394 6.10352e-05V-0.999939C9.15768 -0.999939 8.80643 -0.854446 8.54745 -0.595467L9.25456 0.11164L9.96167 0.818747C9.84557 0.934841 9.68812 1.00006 9.52394 1.00006V6.10352e-05ZM9.25456 0.11164L8.54745 -0.595467C8.28847 -0.336486 8.14298 0.0147657 8.14298 0.381016H9.14298H10.143C10.143 0.545195 10.0778 0.702652 9.96167 0.818747L9.25456 0.11164ZM9.14298 0.381016H8.14298V6.4763H9.14298H10.143V0.381016H9.14298ZM9.14298 6.4763H8.14298C8.14298 6.84255 8.28847 7.1938 8.54745 7.45278L9.25456 6.74567L9.96167 6.03857C10.0778 6.15466 10.143 6.31212 10.143 6.4763H9.14298ZM9.25456 6.74567L8.54745 7.45278C8.80643 7.71176 9.15769 7.85725 9.52394 7.85725V6.85725V5.85725C9.68811 5.85725 9.84557 5.92247 9.96167 6.03857L9.25456 6.74567ZM9.52394 6.85725V7.85725H15.6192V6.85725V5.85725H9.52394V6.85725ZM15.6192 6.85725V7.85725C15.9855 7.85725 16.3367 7.71176 16.5957 7.45278L15.8886 6.74567L15.1815 6.03857C15.2976 5.92247 15.455 5.85725 15.6192 5.85725V6.85725ZM15.8886 6.74567L16.5957 7.45278C16.8547 7.1938 17.0002 6.84255 17.0002 6.4763H16.0002H15.0002C15.0002 6.31212 15.0654 6.15466 15.1815 6.03857L15.8886 6.74567ZM16.0002 6.4763H17.0002V0.381016H16.0002H15.0002V6.4763H16.0002ZM16.0002 0.381016H17.0002C17.0002 0.0147657 16.8547 -0.336486 16.5957 -0.595467L15.8886 0.11164L15.1815 0.818747C15.0654 0.702652 15.0002 0.545195 15.0002 0.381016H16.0002ZM15.8886 0.11164L16.5957 -0.595467C16.3367 -0.854446 15.9855 -0.999939 15.6192 -0.999939V6.10352e-05V1.00006C15.455 1.00006 15.2976 0.934841 15.1815 0.818747L15.8886 0.11164ZM15.2383 6.09534V5.09534H9.90489V6.09534V7.09534H15.2383V6.09534ZM9.90489 6.09534H10.9049V0.761971H9.90489H8.90489V6.09534H9.90489ZM9.90489 0.761971V1.76197H15.2383V0.761971V-0.238029H9.90489V0.761971ZM15.2383 0.761971H14.2383V6.09534H15.2383H16.2383V0.761971H15.2383ZM6.4763 9.14298V8.14298H0.381016V9.14298V10.143H6.4763V9.14298ZM0.381016 9.14298V8.14298C0.0147657 8.14298 -0.336486 8.28847 -0.595467 8.54745L0.11164 9.25456L0.818747 9.96167C0.702652 10.0778 0.545195 10.143 0.381016 10.143V9.14298ZM0.11164 9.25456L-0.595467 8.54745C-0.854446 8.80643 -0.999939 9.15768 -0.999939 9.52394H6.10352e-05H1.00006C1.00006 9.68812 0.934841 9.84557 0.818747 9.96167L0.11164 9.25456ZM6.10352e-05 9.52394H-0.999939V15.6192H6.10352e-05H1.00006V9.52394H6.10352e-05ZM6.10352e-05 15.6192L-0.999939 15.6193C-0.999921 15.9855 -0.854427 16.3367 -0.595461 16.5957L0.111646 15.8886L0.818752 15.1815C0.934835 15.2976 1.00005 15.455 1.00006 15.6192L6.10352e-05 15.6192ZM0.111646 15.8886L-0.595461 16.5957C-0.336495 16.8547 0.0147334 17.0002 0.380966 17.0002L0.381016 16.0002L0.381066 15.0002C0.545231 15.0002 0.70267 15.0654 0.818752 15.1815L0.111646 15.8886ZM0.381016 16.0002V17.0002H6.4763V16.0002V15.0002H0.381016V16.0002ZM6.4763 16.0002L6.47635 17.0002C6.84258 17.0002 7.19381 16.8547 7.45277 16.5957L6.74567 15.8886L6.03856 15.1815C6.15464 15.0654 6.31208 15.0002 6.47625 15.0002L6.4763 16.0002ZM6.74567 15.8886L7.45277 16.5957C7.71174 16.3367 7.85723 15.9855 7.85725 15.6193L6.85725 15.6192L5.85725 15.6192C5.85726 15.455 5.92248 15.2976 6.03856 15.1815L6.74567 15.8886ZM6.85725 15.6192H7.85725V9.52394H6.85725H5.85725V15.6192H6.85725ZM6.85725 9.52394H7.85725C7.85725 9.15769 7.71176 8.80643 7.45278 8.54745L6.74567 9.25456L6.03857 9.96167C5.92247 9.84557 5.85725 9.68811 5.85725 9.52394H6.85725ZM6.74567 9.25456L7.45278 8.54745C7.1938 8.28847 6.84255 8.14298 6.4763 8.14298V9.14298V10.143C6.31212 10.143 6.15466 10.0778 6.03857 9.96167L6.74567 9.25456ZM6.09534 15.2383V14.2383H0.761971V15.2383V16.2383H6.09534V15.2383ZM0.761971 15.2383H1.76197V9.90489H0.761971H-0.238029V15.2383H0.761971ZM0.761971 9.90489V10.9049H6.09534V9.90489V8.90489H0.761971V9.90489ZM6.09534 9.90489H5.09534V15.2383H6.09534H7.09534V9.90489H6.09534ZM15.6192 9.14298V8.14298H9.52394V9.14298V10.143H15.6192V9.14298ZM9.52394 9.14298V8.14298C9.15769 8.14298 8.80643 8.28847 8.54745 8.54745L9.25456 9.25456L9.96167 9.96167C9.84557 10.0778 9.68811 10.143 9.52394 10.143V9.14298ZM9.25456 9.25456L8.54745 8.54745C8.28847 8.80643 8.14298 9.15769 8.14298 9.52394H9.14298H10.143C10.143 9.68811 10.0778 9.84557 9.96167 9.96167L9.25456 9.25456ZM9.14298 9.52394H8.14298V15.6192H9.14298H10.143V9.52394H9.14298ZM9.14298 15.6192L8.14298 15.6193C8.143 15.9855 8.28849 16.3367 8.54746 16.5957L9.25457 15.8886L9.96167 15.1815C10.0778 15.2976 10.143 15.455 10.143 15.6192L9.14298 15.6192ZM9.25457 15.8886L8.54746 16.5957C8.80643 16.8547 9.15765 17.0002 9.52389 17.0002L9.52394 16.0002L9.52399 15.0002C9.68815 15.0002 9.84559 15.0654 9.96167 15.1815L9.25457 15.8886ZM9.52394 16.0002V17.0002H15.6192V16.0002V15.0002H9.52394V16.0002ZM15.6192 16.0002L15.6193 17.0002C15.9855 17.0002 16.3367 16.8547 16.5957 16.5957L15.8886 15.8886L15.1815 15.1815C15.2976 15.0654 15.455 15.0002 15.6192 15.0002L15.6192 16.0002ZM15.8886 15.8886L16.5957 16.5957C16.8547 16.3367 17.0002 15.9855 17.0002 15.6193L16.0002 15.6192L15.0002 15.6192C15.0002 15.455 15.0654 15.2976 15.1815 15.1815L15.8886 15.8886ZM16.0002 15.6192H17.0002V9.52394H16.0002H15.0002V15.6192H16.0002ZM16.0002 9.52394H17.0002C17.0002 9.15769 16.8547 8.80643 16.5957 8.54745L15.8886 9.25456L15.1815 9.96167C15.0654 9.84557 15.0002 9.68811 15.0002 9.52394H16.0002ZM15.8886 9.25456L16.5957 8.54745C16.3367 8.28847 15.9855 8.14298 15.6192 8.14298V9.14298V10.143C15.455 10.143 15.2976 10.0778 15.1815 9.96167L15.8886 9.25456ZM15.2383 15.2383V14.2383H9.90489V15.2383V16.2383H15.2383V15.2383ZM9.90489 15.2383H10.9049V9.90489H9.90489H8.90489V15.2383H9.90489ZM9.90489 9.90489V10.9049H15.2383V9.90489V8.90489H9.90489V9.90489ZM15.2383 9.90489H14.2383V15.2383H15.2383H16.2383V9.90489H15.2383Z" fill="white" mask="url(#path-1-inside-1_0_1358)"/>
</svg>
