<svg width="18" height="22" viewBox="0 0 18 22" fill="none" xmlns="http://www.w3.org/2000/svg">
<path d="M6.5927 22C6.52316 22 6.4529 21.9866 6.38526 21.9587C6.1482 21.8611 6.00013 21.6094 6.02173 21.3407L6.61021 14.0115H0.573225C0.384874 14.0115 0.208559 13.9134 0.101538 13.749C-0.00548279 13.5847 -0.0295534 13.3751 0.0371878 13.1883L4.60841 0.39252C4.69282 0.156277 4.90622 0 5.14441 0H14.5694C14.7615 0 14.9408 0.102094 15.047 0.271906C15.1532 0.441719 15.1722 0.656691 15.0974 0.844293L13.0955 5.86777H17.4268C17.6452 5.86777 17.8446 5.99943 17.9411 6.20722C18.0376 6.41502 18.0142 6.66295 17.8809 6.84643L15.9026 9.57013C15.7095 9.83615 15.3496 9.88556 15.0988 9.68082C14.8479 9.47598 14.8012 9.09438 14.9944 8.82845L16.2619 7.0834H12.231C12.0388 7.0834 11.8595 6.9813 11.7533 6.81149C11.6471 6.64168 11.6282 6.42671 11.703 6.23911L13.7049 1.21554H5.54028L1.40326 12.7958H7.23426C7.39477 12.7958 7.54786 12.8672 7.65643 12.9925C7.76499 13.1178 7.81904 13.2856 7.80539 13.4551L7.32953 19.3818L12.2718 12.5771C12.465 12.3111 12.8249 12.2617 13.0757 12.4664C13.3265 12.6713 13.3732 13.0529 13.1801 13.3188L7.04692 21.763C6.93601 21.9158 6.76675 22 6.5927 22Z" fill="#B6BFD8"/>
<path d="M9.73352 10.9726H3.89648L6.73074 3.03906H11.0721L8.73382 8.90687H12.6814L9.14659 14.5244L9.73352 10.9726Z" fill="#B6BFD8" fill-opacity="0.5"/>
<path d="M9.1434 15.1307C9.07208 15.1307 8.99995 15.1166 8.93045 15.0871C8.67881 14.9802 8.53219 14.7011 8.57896 14.418L9.04817 11.5789H3.89354C3.70519 11.5789 3.52887 11.4808 3.42185 11.3164C3.31483 11.1521 3.29076 10.9425 3.3575 10.7558L6.19167 2.82221C6.27604 2.58596 6.48943 2.42969 6.72771 2.42969H11.0691C11.2613 2.42969 11.4406 2.53178 11.5468 2.70159C11.653 2.87141 11.6719 3.08638 11.5971 3.27398L9.59527 8.29746H12.6784C12.8898 8.29746 13.0841 8.42091 13.1838 8.61856C13.2835 8.81622 13.2725 9.05611 13.1552 9.24255L9.62027 14.8602C9.51135 15.0333 9.33041 15.1307 9.1434 15.1307ZM4.72349 10.3633H9.7305C9.8998 10.3633 10.0605 10.4427 10.1694 10.5802C10.2782 10.7177 10.3243 10.8992 10.2951 11.076L10.1781 11.7837L11.6069 9.51309H8.73084C8.53864 9.51309 8.35928 9.41099 8.25315 9.24118C8.14698 9.07137 8.1281 8.85639 8.2029 8.66879L10.2047 3.64532H7.12354L4.72349 10.3633Z" fill="#B6BFD8"/>
</svg>
