<svg width="20" height="16" viewBox="0 0 20 16" fill="none" xmlns="http://www.w3.org/2000/svg">
<path d="M3.61715 5.89555C1.81179 5.17341 0.909119 4.81234 0.909119 4.36366C0.909119 3.91498 1.81179 3.5539 3.61715 2.83177L6.1703 1.8105C7.97565 1.08837 8.8783 0.727295 10 0.727295C11.1218 0.727295 12.0244 1.08837 13.8298 1.8105L16.3829 2.83177C18.1883 3.5539 19.0909 3.91498 19.0909 4.36366C19.0909 4.81234 18.1883 5.17341 16.3829 5.89555L13.8298 6.91684C12.0244 7.63893 11.1218 8.00002 10 8.00002C8.8783 8.00002 7.97565 7.63893 6.1703 6.91684L3.61715 5.89555Z" stroke="#C1C9E5" stroke-width="1.2"/>
<path d="M19.0909 8C19.0909 8 18.1883 8.80973 16.3829 9.53191L13.8298 10.5532C12.0244 11.2753 11.1218 11.6364 10 11.6364C8.8783 11.6364 7.97565 11.2753 6.1703 10.5532L3.61715 9.53191C1.81179 8.80973 0.909119 8 0.909119 8" stroke="#C1C9E5" stroke-width="1.2" stroke-linecap="round"/>
<path d="M19.0909 11.6365C19.0909 11.6365 18.1883 12.4462 16.3829 13.1684L13.8298 14.1897C12.0244 14.9117 11.1218 15.2728 10 15.2728C8.8783 15.2728 7.97565 14.9117 6.1703 14.1897L3.61715 13.1684C1.81179 12.4462 0.909119 11.6365 0.909119 11.6365" stroke="#C1C9E5" stroke-width="1.2" stroke-linecap="round"/>
</svg>
